DataRate=1500.000000
DataType=double
version=3
OpenSimVersion=4.3-2021-08-27-4bc7ad9
endheader
time	f1_1	f1_2	f1_3	p1_1	p1_2	p1_3	m1_1	m1_2	m1_3	f2_1	f2_2	f2_3	p2_1	p2_2	p2_3	m2_1	m2_2	m2_3	f3_1	f3_2	f3_3	p3_1	p3_2	p3_3	m3_1	m3_2	m3_3
3.73	0	0	0	-259.089987039566	398.0210380554199	1.304700013250113	0	0	0	0	0	-0	251.3170061707497	231.4150097742677	1.697000026702881	0	0	-0	126.7224452769616	-3.850731632696506	487.4883170253727	949.9620513916016	396.987003326416	4.582600176334381	-66417.17980581813	-28112.02428966824	16168.75878680124
3.730666666666667	0	0	0	-259.089987039566	398.0210380554199	1.304700013250113	0	0	0	0	0	-0	251.3170061707497	231.4150097742677	1.697000026702881	0	0	-0	126.5412279774559	-4.400063454742625	483.9069889553007	949.9620513916016	396.987003326416	4.582600176334381	-65594.36945893028	-28312.18448067488	16179.39975956412
3.731333333333333	0	0	0	-259.089987039566	398.0210380554199	1.304700013250113	0	0	0	0	0	-0	251.3170061707497	231.4150097742677	1.697000026702881	0	0	-0	125.0211187207523	-3.595900113742214	477.82601506821	949.9620513916016	396.987003326416	4.582600176334381	-65245.36489770458	-28202.97553787458	15872.66724028324
3.732	0	0	0	-259.089987039566	398.0210380554199	1.304700013250113	0	0	0	0	0	-0	251.3170061707497	231.4150097742677	1.697000026702881	0	0	-0	123.71753703522	-3.129985420616572	470.3775846881906	949.9620513916016	396.987003326416	4.582600176334381	-64328.18794795501	-27405.93913884946	15517.4996219061
3.732666666666666	0	0	0	-259.089987039566	398.0210380554199	1.304700013250113	0	0	0	0	0	-0	251.3170061707497	231.4150097742677	1.697000026702881	0	0	-0	123.7565916569875	-2.575827098328614	465.5931281196214	949.9620513916016	396.987003326416	4.582600176334381	-63810.01614359028	-27916.30786126294	16097.52140185975
3.733333333333333	0	0	0	-259.089987039566	398.0210380554199	1.304700013250113	0	0	0	0	0	-0	251.3170061707497	231.4150097742677	1.697000026702881	0	0	-0	122.824841321883	-2.131739283120862	459.6529641753151	949.9620513916016	396.987003326416	4.582600176334381	-63066.58751203068	-26813.24296631537	15607.28043049131
3.734	0	0	0	-259.089987039566	398.0210380554199	1.304700013250113	0	0	0	0	0	-0	251.3170061707497	231.4150097742677	1.697000026702881	0	0	-0	122.3451730233641	-1.704441291180901	454.3734676087785	949.9620513916016	396.987003326416	4.582600176334381	-62306.68905739897	-26582.88756637809	15449.973222821
3.734666666666667	0	0	0	-259.089987039566	398.0210380554199	1.304700013250113	0	0	0	0	0	-0	251.3170061707497	231.4150097742677	1.697000026702881	0	0	-0	121.5564458841349	-1.791503303427438	446.6695616837023	949.9620513916016	396.987003326416	4.582600176334381	-61476.19624424192	-26194.86154810797	15349.14318883713
3.735333333333333	0	0	0	-259.089987039566	398.0210380554199	1.304700013250113	0	0	0	0	0	-0	251.3170061707497	231.4150097742677	1.697000026702881	0	0	-0	121.2756851551441	-1.179298153906131	441.8505606745287	949.9620513916016	396.987003326416	4.582600176334381	-60239.81947759902	-26226.63361807401	15370.7830692792
3.736	0	0	0	-259.089987039566	398.0210380554199	1.304700013250113	0	0	0	0	0	-0	251.3170061707497	231.4150097742677	1.697000026702881	0	0	-0	120.5289327273397	-0.4189878370207893	433.542981857106	949.9620513916016	396.987003326416	4.582600176334381	-59672.86826842296	-25985.9242380018	15319.65745558004
3.736666666666666	0	0	0	-259.089987039566	398.0210380554199	1.304700013250113	0	0	0	0	0	-0	251.3170061707497	231.4150097742677	1.697000026702881	0	0	-0	118.6126368645716	-0.6380210707445415	427.8104158546917	949.9620513916016	396.987003326416	4.582600176334381	-58916.45448771007	-26175.18462921493	15163.41492251108
3.737333333333333	0	0	0	-259.089987039566	398.0210380554199	1.304700013250113	0	0	0	0	0	-0	251.3170061707497	231.4150097742677	1.697000026702881	0	0	-0	117.6017238870641	-0.3373831168165426	423.5831265984184	949.9620513916016	396.987003326416	4.582600176334381	-58145.4006014831	-25459.13918318827	14955.32811998683
3.738	0	0	0	-259.089987039566	398.0210380554199	1.304700013250113	0	0	0	0	0	-0	251.3170061707497	231.4150097742677	1.697000026702881	0	0	-0	115.8789992367715	-0.04732015682357016	416.9027983150358	949.9620513916016	396.987003326416	4.582600176334381	-58051.45016245556	-25893.82309655139	15282.36545173597
3.738666666666667	0	0	0	-259.089987039566	398.0210380554199	1.304700013250113	0	0	0	0	0	-0	251.3170061707497	231.4150097742677	1.697000026702881	0	0	-0	115.2440446669849	-0.04237640520460051	410.3480138790777	949.9620513916016	396.987003326416	4.582600176334381	-56699.33671317124	-25101.45885557673	15169.97508219617
3.739333333333333	0	0	0	-259.089987039566	398.0210380554199	1.304700013250113	0	0	0	0	0	-0	251.3170061707497	231.4150097742677	1.697000026702881	0	0	-0	114.2976156044716	1.026849516854714	404.4506862508543	949.9620513916016	396.987003326416	4.582600176334381	-55877.57065839837	-25077.13019185813	14801.42765375161
3.74	0	0	0	-259.089987039566	398.0210380554199	1.304700013250113	0	0	0	0	0	-0	251.3170061707497	231.4150097742677	1.697000026702881	0	0	-0	112.6157249761666	2.165349048577498	400.7653409605336	949.9620513916016	396.987003326416	4.582600176334381	-55288.05889280123	-24203.24720452488	14542.29742940833
3.740666666666666	0	0	0	-259.089987039566	398.0210380554199	1.304700013250113	0	0	0	0	0	-0	251.3170061707497	231.4150097742677	1.697000026702881	0	0	-0	112.029895176157	1.472786093158763	395.9164746999701	949.9620513916016	396.987003326416	4.582600176334381	-53785.57604280976	-24000.62455830663	14612.07639929144
3.741333333333333	0	0	0	-259.089987039566	398.0210380554199	1.304700013250113	0	0	0	0	0	-0	251.3170061707497	231.4150097742677	1.697000026702881	0	0	-0	110.8160839670215	2.177670786931087	388.1488162849069	949.9620513916016	396.987003326416	4.582600176334381	-53162.61550460786	-23785.60579992336	14787.53066687073
3.742	0	0	0	-259.089987039566	398.0210380554199	1.304700013250113	0	0	0	0	0	-0	251.3170061707497	231.4150097742677	1.697000026702881	0	0	-0	109.3327599828086	2.429888380813209	383.2062403068695	949.9620513916016	396.987003326416	4.582600176334381	-52470.47074044395	-23607.32166572954	14163.60176224605
3.742666666666667	0	0	0	-259.089987039566	398.0210380554199	1.304700013250113	0	0	0	0	0	-0	251.3170061707497	231.4150097742677	1.697000026702881	0	0	-0	108.5597674175659	3.325941362209908	374.2736993449676	949.9620513916016	396.987003326416	4.582600176334381	-51756.69373498672	-23132.59580666831	14281.71722182006
3.743333333333333	0	0	0	-259.089987039566	398.0210380554199	1.304700013250113	0	0	0	0	0	-0	251.3170061707497	231.4150097742677	1.697000026702881	0	0	-0	107.233867553916	3.964878923742009	368.6273540100273	949.9620513916016	396.987003326416	4.582600176334381	-50770.89565109486	-22809.66514187443	13950.52236943721
3.744	0	0	0	-259.089987039566	398.0210380554199	1.304700013250113	0	0	0	0	0	-0	251.3170061707497	231.4150097742677	1.697000026702881	0	0	-0	105.2686497131015	4.065582148609465	363.6787723763109	949.9620513916016	396.987003326416	4.582600176334381	-49420.04471034163	-22270.28451369573	13731.0842282654
3.744666666666666	0	0	0	-259.089987039566	398.0210380554199	1.304700013250113	0	0	0	0	0	-0	251.3170061707497	231.4150097742677	1.697000026702881	0	0	-0	104.948040900661	5.013695970433348	356.8062557589384	949.9620513916016	396.987003326416	4.582600176334381	-49416.52795090913	-22009.4055551434	13623.8752130406
3.745333333333333	0	0	0	-259.089987039566	398.0210380554199	1.304700013250113	0	0	0	0	0	-0	251.3170061707497	231.4150097742677	1.697000026702881	0	0	-0	103.3494499719313	5.300828522275742	349.449672936304	949.9620513916016	396.987003326416	4.582600176334381	-47741.3339077405	-21409.50415603873	13462.75906388695
3.746	0	0	0	-259.089987039566	398.0210380554199	1.304700013250113	0	0	0	0	0	-0	251.3170061707497	231.4150097742677	1.697000026702881	0	0	-0	101.9537531323765	5.750810841369051	340.9601338384479	949.9620513916016	396.987003326416	4.582600176334381	-47345.40257543034	-21203.33526230327	13515.16209836415
3.746666666666667	0	0	0	-259.089987039566	398.0210380554199	1.304700013250113	0	0	0	0	0	-0	251.3170061707497	231.4150097742677	1.697000026702881	0	0	-0	99.9895794790169	5.923799053888625	335.7668314449802	949.9620513916016	396.987003326416	4.582600176334381	-46109.40041781832	-21316.9920843671	13417.34680084823
3.747333333333333	0	0	0	-259.089987039566	398.0210380554199	1.304700013250113	0	0	0	0	0	-0	251.3170061707497	231.4150097742677	1.697000026702881	0	0	-0	99.14428147463923	6.200650437344135	327.8776290128649	949.9620513916016	396.987003326416	4.582600176334381	-45446.68367164103	-20596.30154852817	13167.88917682128
3.748	0	0	0	-259.089987039566	398.0210380554199	1.304700013250113	0	0	0	0	0	-0	251.3170061707497	231.4150097742677	1.697000026702881	0	0	-0	97.14413733765585	5.6544591816837	321.143274996355	949.9620513916016	396.987003326416	4.582600176334381	-44310.54439240785	-20196.09142345205	13162.17922421034
3.748666666666666	0	0	0	-259.089987039566	398.0210380554199	1.304700013250113	0	0	0	0	0	-0	251.3170061707497	231.4150097742677	1.697000026702881	0	0	-0	95.59795646074704	6.675734880120731	313.9875518360254	949.9620513916016	396.987003326416	4.582600176334381	-43215.23795583718	-20179.67240119605	12693.63231217424
3.749333333333333	0	0	0	-259.089987039566	398.0210380554199	1.304700013250113	0	0	0	0	0	-0	251.3170061707497	231.4150097742677	1.697000026702881	0	0	-0	93.60065481937309	7.660559219533936	307.481242878894	949.9620513916016	396.987003326416	4.582600176334381	-42913.36979908706	-19721.20544128227	13357.54092096353
3.75	0	0	0	-259.089987039566	398.0210380554199	1.304700013250113	0	0	0	0	0	-0	251.3170061707497	231.4150097742677	1.697000026702881	0	0	-0	92.84082630698336	7.338421488646921	301.3610692111948	949.9620513916016	396.987003326416	4.582600176334381	-41711.32726641568	-19533.25727510867	12493.35174016376
3.750666666666667	0	0	0	-259.089987039566	398.0210380554199	1.304700013250113	0	0	0	0	0	-0	251.3170061707497	231.4150097742677	1.697000026702881	0	0	-0	91.24423218032572	7.659761120012648	294.4779667495636	949.9620513916016	396.987003326416	4.582600176334381	-41474.45879462319	-19717.86304706202	12239.37079427006
3.751333333333333	0	0	0	-259.089987039566	398.0210380554199	1.304700013250113	0	0	0	0	0	-0	251.3170061707497	231.4150097742677	1.697000026702881	0	0	-0	89.83418516588985	8.38033205387965	286.2429026022336	949.9620513916016	396.987003326416	4.582600176334381	-39957.15846362655	-18999.4719000502	12362.19009485654
3.752	0	0	0	-259.089987039566	398.0210380554199	1.304700013250113	0	0	0	0	0	-0	251.3170061707497	231.4150097742677	1.697000026702881	0	0	-0	88.03386202407594	8.507694371554718	278.9627906245053	949.9620513916016	396.987003326416	4.582600176334381	-38551.85360466459	-18218.20894376623	12012.87628667902
3.752666666666666	0	0	0	-259.089987039566	398.0210380554199	1.304700013250113	0	0	0	0	0	-0	251.3170061707497	231.4150097742677	1.697000026702881	0	0	-0	86.22716239761108	8.544263218342195	275.0075409657078	949.9620513916016	396.987003326416	4.582600176334381	-38148.13149264387	-18282.60746105574	11455.44427921379
3.753333333333333	0	0	0	-259.089987039566	398.0210380554199	1.304700013250113	0	0	0	0	0	-0	251.3170061707497	231.4150097742677	1.697000026702881	0	0	-0	85.3031132331139	9.66019686203281	265.2470540533944	949.9620513916016	396.987003326416	4.582600176334381	-37444.60376858318	-17086.27429267357	11318.27412817915
3.754	0	0	0	-259.089987039566	398.0210380554199	1.304700013250113	0	0	0	0	0	-0	251.3170061707497	231.4150097742677	1.697000026702881	0	0	-0	82.78787860906525	9.859180917327777	259.8704871343116	949.9620513916016	396.987003326416	4.582600176334381	-35973.69571891662	-17346.40616269368	11056.17851296001
3.754666666666667	0	0	0	-259.089987039566	398.0210380554199	1.304700013250113	0	0	0	0	0	-0	251.3170061707497	231.4150097742677	1.697000026702881	0	0	-0	81.53589025616644	10.47550669326012	253.0716868060877	949.9620513916016	396.987003326416	4.582600176334381	-35695.56813748108	-16875.7103604992	11005.91968119731
